<svg version="1.2" xmlns="http://www.w3.org/2000/svg" viewBox="0 0 1545 624" width="1545" height="624"><style>.a{fill:#ffcb05}.b{fill:#00529c}.c{fill:#fff}</style><path fill-rule="evenodd" class="a" d="m1544.2 183.4v342.3h-1056.5v-342.3z"/><path fill-rule="evenodd" class="b" d="m531.5 228.6h44v215h80.8v36.9h-124.8zm207.7 0v251.9h-43.9v-251.9zm144.1 162.7h44.1c0 29.3-5.1 52.4-15 69.2-10.1 16.8-27.3 25.3-51.7 25.3-28.8 0-48.9-7.9-60-23.9-11.2-16.1-16.8-42.6-16.8-79.6v-53.3c0-39.7 5.8-67.3 17.4-82.4 11.8-15.6 30.4-23.3 55.9-23.3 23.9 0 41.1 6.8 51.7 20.6 10.7 13.6 16.1 34.7 16.1 63.4h-43.2c0-15.5-1.6-27-4.5-34.6q-4.5-11.3-16.8-11.3c-20.9 0-31.1 17.5-31.1 52.5v81.7q0 28.2 7.8 40.2c5.4 8 13.3 12 23.5 12 7.8 0 13.5-4.2 17.2-12.7q5.4-12.8 5.4-43.8zm134.5-162.7h43.9v99.5h61.4v-99.5h44v251.9h-44v-115.4h-61.4v115.4h-43.9zm199.2 251.9v-251.9h124.9v36.9h-80.9v64h76.1v36.9h-76.1v114.1zm161.7-251.9h44v215h80.8v36.9h-124.8zm-1313.7 385.2h34.3v7.9h-45.1v-66.6h10.8z"/><path fill-rule="evenodd" class="b" d="m123.7 621.7h10.8v-66.6h-10.8zm78.8-24.1l-0.6 5c-1.3 8.8-5.7 12.9-14 12.9-5.5 0-9.4-2-11.9-6-2.5-4.1-3.8-10.2-3.8-18.6 0-12.2 1.5-20.2 4.2-23.8 2.8-3.8 6.5-5.7 11.6-5.7 9.5 0.1 14.1 4.5 14.5 13.9l0.1 0.6h11v-2.5c0-5.9-2.4-10.7-7-14.4-4.5-3.7-10.6-5.5-18.1-5.5-9.2 0-16.2 2.8-20.8 8.6-4.4 5.7-6.6 14.4-6.6 25.8v4.8c0 10 2.2 17.7 6.4 22.9 4.4 5.3 11.4 7.9 20.8 7.9 6.9 0 12.5-1.6 16.8-5 4.3-3.3 6.9-7.7 7.6-13l0.9-8.6h-11zm116.2-15.2h-30.6v-27.2h-10.6v66.6h10.6v-31.6h30.6v31.6h10.8v-66.6h-10.8zm65.2-28.7c-9.5 0-16.8 2.7-21.6 8.2-4.7 5.7-7 13.8-7 24.3 0 13.8 2.1 23.5 6.5 29.1 4.4 5.6 11.9 8.3 22.1 8.3q13.7 0 20.9-7.8c4.9-5.2 7.3-14.6 7.3-28.2q0-18.4-7.1-26.2c-4.8-5.3-11.9-7.7-21.1-7.7zm-17.6 33c0.1-17.1 5.7-25.1 17.1-25.2 11.8 0.1 17.6 8 17.8 24.9 0 11.2-1.4 19-3.9 23.1-2.3 4.1-6.7 6.2-13.4 6.2-6.9 0-11.4-2.1-13.8-6-2.5-4.1-3.8-11.8-3.8-23zm112.8 16.7c-0.1 8.3-4.8 12.1-15.3 12.3-10.5-0.2-15.2-4.1-15.4-12.7v-47.7h-10.7v50.1c0 5.9 2.3 10.4 6.8 13.6 4.5 3.1 11.1 4.6 19.5 4.6 7.8 0 14-1.5 18.7-4.5 4.7-3 7.1-7.6 7.1-13.4v-50.4h-10.7zm71-17.9l-15.4-4.5c-5.5-1.7-7.9-4.4-7.9-8.5 0-3.8 1.1-6.4 3.4-8.2 2.1-1.7 5.9-2.7 11.1-2.7 3.7 0 6.7 0.9 8.9 2.7 2.4 1.9 3.4 3.8 3.4 6.1 0 0.8 0 1.5-0.1 2.3l-0.1 0.7h11.1v-0.6c0.1-1 0.2-2.1 0.2-3.1 0-4.5-2.3-8.4-6.6-11.4-4.3-3-10.4-4.6-18.3-4.6-6.9 0-12.7 1.7-17.3 5.1-4.4 3.6-6.8 8.1-6.8 13.5 0 3.9 1.1 7.3 3 10.1 2.1 2.8 6.2 5.1 12.2 7l17.5 5.1c2.9 1 5 2.1 6.2 3.6 1.2 1.2 1.7 3.5 1.7 6.7 0 3.4-1.2 5.9-3.7 7.9q-3.8 3-11.6 3c-5.4 0-9.1-1-11.5-2.8-2.4-1.8-3.6-4.7-3.6-9.1v-3.9h-11v3.3c0 6.9 2.3 12.2 7 15.5 4.6 3.4 10.8 5 18.6 5 8.7 0 15.4-1.8 19.9-5.7 4.6-3.7 7-8.8 7-14.9 0-4.6-1.2-8.1-3.8-10.7-2.4-2.6-7-4.9-13.5-6.9zm43.7 36.4h10.8v-66.5h-10.8zm82.3-10l-25.9-56.6h-16.4v66.6h10.8v-56.8l25.7 56.8h16.6v-66.6h-10.8zm61.2-17.1h18.5c-0.1 6.3-1.4 11.2-3.6 15.1-2.2 3.8-6.4 5.8-13 5.8-5.9 0-10-1.8-12.7-5.4-2.6-3.5-4.1-10.4-4.1-20.6 0-10.6 1.5-18.1 4.1-22.1 2.7-4 7-6 13.2-6.1 9.9 0.2 14.4 4.3 15 13.2l0.1 0.7h11v-0.7c0-6.4-2.3-11.7-6.9-15.4-4.6-3.8-10.9-5.6-19-5.6-9.5 0-16.7 2.7-21.5 8.4-4.6 5.7-6.9 14.8-6.9 27.4 0 12.1 2.3 20.8 6.9 26.2 4.8 5.4 11.7 7.9 20.7 7.9h0.1c9 0 15.4-3 18.8-8.9v7.9h8.5v-35.7h-29.2zm95.8 27.1h10.8v-30.9h27.8v-8h-27.8v-19.8h29.9v-7.9h-40.7zm64.1 0h10.8v-66.6h-10.8zm82.3-10l-25.7-56.6h-16.4v66.6h10.8v-56.7l25.6 56.7h16.6v-66.6h-10.9zm54.4-56.5l-24.2 66.5h11.8l6.1-18.6h25.7l6.4 18.6h11.9l-24.2-66.5zm16.6 40h-20.2l10.1-32.1zm83.1 16.6l-25.9-56.6h-16.5v66.6h10.8v-56.8l25.7 56.8h16.6v-66.6h-10.7zm76.5-14.2l-0.6 5c-1.3 8.9-5.8 12.9-14.1 13-5.6 0-9.3-2-11.8-6q-3.9-6.1-3.9-18.6c0-12.3 1.5-20.3 4.3-23.8 2.8-3.8 6.5-5.7 11.5-5.7 9.5 0.1 14.1 4.5 14.6 13.8v0.7h11.1v-2.5c0-6-2.4-10.7-7-14.4-4.5-3.8-10.6-5.5-18.1-5.5-9.2 0-16.3 2.8-20.7 8.6-4.6 5.7-6.6 14.3-6.6 25.8v4.8c0 9.9 2 17.6 6.3 22.9 4.3 5.3 11.4 7.9 20.8 7.9 6.8 0 12.4-1.7 16.8-5 4.3-3.3 6.9-7.7 7.5-13l1-8.6h-11zm45.6-6.3h30.6v-8h-30.6v-20.1h32.6v-8h-43.3v66.6h43.6v-7.9h-32.9zm108.1-36h-10.8v66.5h45.1v-7.9h-34.3zm49.2 8h22.1v58.6h10.8v-58.6h21.9v-8h-54.8zm121.4-1c-5-4.6-12.4-6.9-22.3-6.9h-24v66.6h25.3c9.8 0 17.2-2.9 21.7-8.7 4.6-6 6.8-14.3 6.8-25.1 0-12.6-2.4-21.2-7.5-25.9zm-3.5 26c0 10-1.5 16.8-4.4 20.4-2.7 3.5-7.3 5.4-13.5 5.4h-14.2v-50.8h13.7c7.2 0 11.9 2.2 14.4 6.3 2.7 4.1 4 10.3 4 18.7zm-1083.1-484v-68.5h-52.8v35.7l-101.1-62.3c-16.9-8.5-29.6-14-50.9 0-28.1 18.4-205 131.1-236.2 150.8-12.4 8.5-3.2 25.5 5.4 25.5h42v340.5h433.5v-342.3h42.4c8.6 0 17.2-16.5 4.8-24.9z"/><path fill-rule="evenodd" class="c" d="m124.3 218.6c-7 16.8-5.2 29.4-5.2 29.4 0 10.6-1.1 45.7 3.5 52.7 2.8 5.2 17.9 31.4 17.9 31.4 0 0 16.8 29.6 26.6 41.3 9.7 12.3 5.3 15.3 5.3 15.3l-14 24.5h64l3.4-14.8c0.7-2 3.5-3.2 4.9-4 2.5-1.6 4.4-3.8 6-5.7 3.3-4.9 5.8-11 6.2-16.7 0.4-7.3-3.8-14.7-8.2-22.8-4.5-8.3-21.2-29.4-21.7-30.7-0.2-0.8-5.6-9.4-7.3-12.6-1.9-3.7-6.9-8.6-7.2-9.4-0.6-1.2-1.8-7.8-2.5-11.1-1.2-3.1-5.3-8.9-6.2-10.5-0.4-1.2-1.9-2.1 0.5-9.8 1.9-7.8 1.6-11.3 1.6-15.1 0.3-3.5-0.8-13-0.8-13.9 0-0.3-0.4-0.3 3.7-9.7 4.4-9.9 5.6-22.5 5.6-22.5 0.9-4.5 1.3-16.7-5.6-18.8-6.6 0.9-6.6 7.4-6.9 9.8-0.5 2.4-4.5 15.6-5.5 17.9-1.1 2.5-5.6 16.4-6 17.2 0 0.9-5 14.7-5.3 17.6-0.8 2.4-2.1 12.6-2.9 19.9-0.8 7.4 1.7 12.3 0.5 12.7-1.6 0.4-2.2-0.7-2.2-0.7-0.7-3.8-1.9-8.7-1.9-12.7-0.4-4.1 0.8-10.7 1.2-14.3 0.4-3.7 5-19.6 5-20 0.3-0.9 1.1-1.9 1.1-2.9 0.5-0.8 3.7-10.6 3.7-10.6 0.3-0.7 5.3-15.5 6.8-20.1 1.3-4.8 1.3-6.4 1.3-8 0.4-1.3 1.6-6.6 2.1-8.1 0-2 1.2-2.9 1.2-2.9 1.2-1.2 2.1 0 4.1-0.8 1.7-0.4 0.8-4.9 0.8-4.9-0.4-4.6-4-9.4-9.5-11.9-5.6-2.3-4.7 2-4.7 2 0 0-1.3 4.2-1.3 9.9-0.5 6.1-5 17.9-5.3 19.1-0.3 1.2-9.3 20.8-9.3 20.8 0 0-2.4 5.3-4.9 11.2-1.7 3.5-2.5 7.6-3.7 10.1-2.8 6.9-4.1 17.1-4.1 17.1 0 0-0.5 13.8 0 15.5 0.4 2 0.9 6.1 0.9 6.9 0 0.4 0 4.9-1.4 4.9-1.1 0-1.6-2-1.6-2 0 0-2.8-11.5-2.4-19.7 0.8-8.6 2.2-12.5 2.9-16.6 0.4-3.8 4-14.7 4-14.7 0.9-0.9 1.4-2 1.7-3 0-0.7 7.3-17.8 8.6-19.4 1.5-2.1 4.4-8.6 4.4-8.6 3.4-8.6 5.7-17.5 6.2-22.4 0.3-5.3-3.4-9.1-5.3-10.7-2.1-1.6-7.4-2.7-9-1.6-1.2 1.2-0.5 4.2-0.5 4.2 0.5 10.9-2.9 19-2.9 19-0.7 4.1-7.9 19.2-7.9 19.2 0 0-5.5 14-7 18.8-1.7 4.5-2.1 4.9-2.9 6.9-0.8 1.7-2.4 11.8-2.9 15.1-0.4 3.3-0.4 19.2-0.4 19.2 1.3 7.8-0.4 8.4-0.4 8.4-1.2 1.3-1.7 0-1.7 0l-1.5-15.3c-1.2-13.5 2-25.7 2.4-26 0.5-1 1.2-3 1.2-3l8.5-23.7c2.1-4.5 6.2-17 7.9-20.8 1.5-3.7 3.5-9.7-4.2-14.3-7.7-4.5-6 2.9-6 5.4 0 2-2.5 11.8-2.5 11.8 0 0-6.2 15.9-13 32.6zm292.9-32.5c0 0-2-9.9-2.4-11.9 0-2.4 1.6-9.9-6.2-5.4-7.4 4.6-5.3 10.7-4 14.3 1.7 3.8 5.7 16.4 8.1 20.9l8.6 23.7c0 0 0.7 2 0.7 2.9 0.5 0.4 3.7 12.6 2.5 26l-1.6 15.4c0 0-0.4 1.4-1.6 0 0 0-1.6-0.7-0.5-8.5 0 0 0-15.8-0.4-19.1-0.4-3.3-1.6-13.4-2.8-15.2-0.8-1.9-1.2-2.3-2.8-6.9-1.3-4.8-7-18.7-7-18.7 0 0-7.3-15.2-8.1-19.2 0 0-3.2-8.2-2.9-19.1 0 0 1.2-3-0.3-4.2-1.7-1.1-6.6 0-8.8 1.8-1.9 1.4-6.1 5.2-5.6 10.5 0.8 4.9 2.9 13.8 6.1 22.4 0 0 2.9 6.6 4.5 8.7 1.3 1.5 8.5 18.7 9 19.5 0 0.8 0.8 2.1 1.2 2.9 0 0 3.7 10.9 4.1 14.7 0.8 4 2.4 8.2 2.8 16.6 0.5 8.1-2.4 19.6-2.4 19.6 0 0-0.4 2-1.7 2-1.1 0-1.1-4.4-1.1-4.8 0-0.8 0.3-5 0.7-6.9 0.4-1.8 0-15.5 0-15.5 0 0-1.2-10.3-4.1-17.2-0.7-2.5-1.9-6.6-3.5-10.1-2.1-5.8-5-11.1-5-11.1 0 0-8.6-19.5-9-20.8-0.4-1.2-5.2-13.1-5.7-19.2 0-5.7-1.2-9.9-1.2-9.9 0 0 1.2-4.3-4.5-2-5.7 2.5-9.3 7.4-9.8 11.9 0 0-0.7 4.5 1.4 5 1.5 0.7 2.7-0.5 3.5 0.7 0 0 1.3 0.9 1.7 2.9 0 1.6 1.2 6.9 1.6 8.2 0.4 1.5 0 3.2 1.3 8.1 1.7 4.5 6.5 19.2 6.9 20 0 0 3.2 9.7 3.6 10.6 0.4 0.9 0.8 1.9 1.2 2.9 0.4 0.3 4.5 16.3 4.9 20 0.5 3.6 1.7 10.1 1.7 14.3-0.4 4-1.2 8.9-2.1 12.7 0 0-0.8 1.1-2 0.7-1.7-0.5 0.9-5.3 0-12.7-0.4-7.4-2.1-17.5-2.9-19.9-0.4-2.9-4.8-16.7-5.3-17.7 0-0.8-4.9-14.6-6-17-0.9-2.4-4.6-15.6-5.4-18-0.5-2.5-0.5-8.9-6.9-9.8-7 2-6.5 14.3-5.7 18.8 0 0 1.3 12.7 5.7 22.4 4.6 9.5 3.7 9.5 3.7 9.8 0 0.8-1.3 10.4-0.9 13.9 0 3.7-0.4 7.3 1.8 15.1 2.3 7.8 0.7 8.6 0.3 9.8-0.3 1.6-4.9 7.3-6.1 10.6-0.9 3.2-1.6 9.8-2.4 11-0.4 0.9-5.4 5.7-7.4 9.3-1.7 3.4-6.9 11.9-7.4 12.7-0.3 1.2-17 22.5-21.6 30.7-4.4 8.1-8.1 15.5-7.7 22.9 0 5.6 2.4 11.8 6 16.6 1.7 2.1 3.4 4.1 5.8 5.6 1.6 0.9 4.1 2.1 4.9 4.2l3.3 14.6h64.5l-14-24.4c0 0-4.9-2.9 4.9-15.2 9.8-11.7 26.5-41.4 26.5-41.4 0 0 15.5-26.3 18.5-31.5 4-7 3.5-41.9 3.1-52.6 0 0 1.7-12.7-5.3-29.3-6.5-16.8-13-32.7-13-32.7z"/><path class="c" d="m298.2 304.7c-5.2-0.8-11.5-1.6-18-1.6 1.1-3.9 2.7-8.1 4.2-13.1 5.1-13.5-2-29.3-3.8-33.6-2.3-4.5-7.8-18.1-7.8-18.1-2.7 20.8-11.9 30.1-15 40.2-1.5 5.4 0.9 11.5 3.1 16.5 1.5 2.7 3.5 5.8 4.9 8.4-3.8 0.5-7.6 1.3-11.1 2-13.8 2.6-23 8.4-23 14.6 0 8.5 9.2 24 23 33.2 7.1 4.6 15.1 7.3 23.6 7.3 6.8 0 13.8-1.8 19.9-5.4 15.5-8.8 26.2-25.4 26.2-35.1 0-6.9-10.7-12.7-26.2-15.3zm-43.5 20.4c-11.1-1.6-18.4-4.6-18.4-7.7 0-3.6 7.3-7.4 18.4-9.7 4-0.7 8.1-1.6 12.8-1.8 0.4 0.6 1.1 1.1 1.5 1.8 2.3 3.4 4.2 6.5 4.2 11.2 0 7-11.4 7-18.5 6.2zm46.7 0h-0.5c-0.7 0-1.9 0-2.7 0.4-7.2 0-17.3-0.4-19.9-7-1.2-2.3-0.4-6.9 1.1-13.1 6.9 0 13.6 0.7 18.8 1.9 12.3 2.2 20.9 6.5 20.9 10.1 0 3.1-7.3 6.1-17.7 7.7z"/><path fill-rule="evenodd" class="c" d="m254 293.7c-11.4 2.3-21.2 6.2-28.1 11.2v-47.8h-27.8l79.2-79.5 79.2 79.5h-27.8v47.8c-8.9-6.5-22.8-11.2-38.9-12.8 0 0 0.1 0 0.1-0.1 3.8-10.4 2.5-23.2-4.1-38.2-2.2-4.4-7.5-17.6-7.5-17.6l-8.4-20.6-2.8 21.9c-1.6 12.6-5.9 20.6-9.6 27.6-2.1 4-4 7.7-5.3 11.9-1.6 5.6-0.1 11.6 1.8 16.7zm35.1 146.5h14.6v5.7h-2.6v32.9c0 0 0.1 0.5 0.2 1 0.2 0.5 0.7 1.1 0.7 1.1h-7.6c0 0 0.4-0.6 0.6-1.2 0.2-0.6 0.2-1.2 0.2-1.2v-12.2h-3.6c-0.3 8.3-6.1 14.9-13 14.9-7.2 0-13-7-13-15.7 0-1.2 0.1-2.3 0.2-3.5l0.2-0.1c0 0-0.1-0.5-0.3-1.1-0.2-0.5-0.6-1-0.6-1h8.4c0 0-0.5 0.5-0.7 1-0.2 0.7-1 3.8-1 5 0 4.6 3.1 8.2 6.8 8.2 3.7 0 6.8-3.6 6.8-8.2 0-4.4-3.1-8.1-6.8-8.1v-5.2h1c1.8 0 3.4-1.6 3.4-3.6 0-2-1.6-3.5-3.4-3.5-1.9 0-3.4 1.5-3.4 3.5 0 0 0.1 0.5 0.4 1.1 0.2 0.6 0.5 1.1 0.5 1.1h-7.4c0 0 0.4-0.5 0.5-1.1 0.5-1.2 0.5-1.8 0.5-1.8 0-5.3 4-9.5 8.9-9.5 4.9 0 8.9 4.2 8.9 9.5 0 1.9-0.6 3.8-1.6 5.3 1.5 1.4 2.6 3.1 3.4 5.2h4.9v-12.8h-6.1zm41.7 0h100.6v5.7h-5.7v32.9c0 0 0.1 0.5 0.2 1 0.3 0.6 0.5 1.1 0.5 1.1h-7.5c0 0 0.5-0.5 0.7-1.2 0.2-0.6 0.2-1.2 0.2-1.2v-5.6c-2 1.4-4.4 2.3-7.1 2.3-7.1 0-12.9-6.5-12.9-14.4 0-3.7 1.4-7.1 3.4-9.6 0 0 1.7-2 3.1-0.6 0.6 0.4 1.2 0.9 2 0.9 1.4 0 2.6-1.3 2.6-2.8 0-1.5-1.2-2.7-2.6-2.8h-11.8v32.9c0 0 0.1 0.5 0.2 1 0.2 0.6 0.6 1.1 0.6 1.1h-7.6c0 0 0.5-0.5 0.7-1.2 0.2-0.6 0.2-1.2 0.2-1.2v-32.6h-4.8v8.2c0 0-4.2-0.2-7.2-0.2-4.9 0.1-4.7 1.6-4.7 3.1v0.1c1-0.3 2.1-0.5 3.1-0.5 6.7 0 12.1 5.9 12.1 13.2q0 2.2-0.6 4.2c0 0.1 0 0.3 0.2 0.4h-7.5q0.1-0.2 0.4-0.4c0.6-1 1-2.2 1-3.6 0-3.3-2.4-5.9-5.2-5.9-3 0-5.3 2.6-5.3 5.9 0 3.3 2.3 6.1 5.3 6 0.8 0 1.5-0.2 2.1-0.4 0.5-0.2 1-0.6 1-0.6v8.4c0 0-0.5-0.3-1-0.6-0.6-0.2-2.1-0.1-2.5-0.1-6.7 0-12.1-5.9-12.1-13.3 0-3.5 1.4-6.7 3.4-9.1-1.6-1.5-2.7-3.4-2.7-5.6 0-4.3 3.9-7.7 8.8-7.7h4.9v-1.5h-17.8v32.9c0 0 0 0.5 0.2 1 0.2 0.6 0.6 1.1 0.6 1.1h-7.6c0 0 0.4-0.5 0.8-1.2 0.1-0.6 0.1-1.2 0.1-1.2v-12.2h-6.2v-7.6h6.2v-12.8h-7.3c1 1.9 1.6 4 1.6 6.2 0 4.7-2.5 8.7-6.1 10.9 5.6 6.6 5.2 15.8 5.2 15.8 0 0 0 0.5 0.2 1 0.2 0.6 0.5 1.1 0.5 1.1h-8.4c0 0 0.5-0.5 0.7-1.2 0.1-0.6 0.1-1.2 0.1-1.2 0 0 0.3-10.9-6.6-13.7-0.9-0.1-1.8-0.3-2.6-0.6h-0.3v-7.2c0.5 0.1 0.9 0.1 1.5 0.3 1.1 0.2 2.1 0.6 3 1 3.5 0 6.1-2.8 6.1-6.2 0-3.3-2.6-6-5.8-6.2h-6.6v32.9c0 0 0 0.5 0.1 1 0.2 0.6 0.6 1.1 0.6 1.1h-7.5c0 0 0.5-0.5 0.6-1.2 0.2-0.6 0.2-1.2 0.2-1.2v-5.6c-2.4 1.7-5.2 2.8-8 2.8-7.2 0-13-6.4-13-14.4 0-3.8 1.3-7.1 3.4-9.6 0 0 1.5-1.8 3.2-0.7 2.8 2.1 5.7-0.9 5.7-3.3 0-1.8-1.1-3.2-2.7-3.2-1.5 0-1.9 1.7-1.9 1.7 0 0-0.2 0.5 0.2 1.1 0.2 0.5 0.5 1.1 0.5 1.1h-7.5c0 0 0.5-0.5 0.7-1.1 0.2-0.6 0.2-1.5 0.2-1.5 0.7-4.2 4-7.3 7.8-7.3 4.3 0 7.9 4.1 7.9 9.2 0 5.2-3.6 9.4-7.9 9.4-1.1-0.1-1.7-0.3-1.7-0.3-0.8 1-1.2 2.2-1.2 3.5 0 3.4 3 8 6.6 8 3.7 0 7.6-2.9 7.7-6.3v-16.1h-3.2v-5.7h0.1c-1.2-1.7-2-3.9-2-6.2 0-6 5-11 11.1-11q1.8 0 3.4 0.5c0.1 0.1 0.7 0.2 1 0.2 0.4-0.1 0.7-0.2 0.7-0.2l-2 7.5c0 0-0.6-1.1-2.7-1.1-2.9 0-5.3 2.3-5.3 5.2 0 2.7 2.2 4.9 4.9 5.1zm86.9 9c0 5-3.9 9-8.6 9-0.6 0-1 0-1.4-0.2-0.7 1-1.1 2.2-1.1 3.5 0 3.5 2.9 6.2 6.5 6.2 3.7 0 6.7-2.7 6.7-6.2v-15.6h-2.7q0.6 1.6 0.6 3.3zm14.5 3.7h6.8v6.8h-6.8zm0 20.1h6.8v6.8h-6.8zm-328.6-32.8h147.6v5.7h-5.1v32.9c0 0 0 0.5 0.2 1 0.2 0.6 0.5 1.1 0.5 1.1h-7.5c0 0 0.4-0.5 0.7-1.1 0.2-0.6 0.1-1.3 0.1-1.3v-5.6c-1.9 1.5-4.3 2.3-6.9 2.3-7.1 0-12.9-6.4-12.9-14.4 0-3.7 1.2-7 3.3-9.6 0 0 1.8-1.9 3.2-0.6 0.5 0.4 1.2 0.9 1.9 0.9 1.5 0 2.6-1.3 2.6-2.8 0-1.5-1.1-2.7-2.6-2.8h-11.3v32.9c0 0 0.1 0.5 0.3 1 0.1 0.6 0.6 1.1 0.6 1.1h-7.6c0 0 0.4-0.5 0.6-1.1 0.3-0.6 0.2-1.3 0.2-1.3v-32.6h-4.7v8.2c0 0-4.2-0.1-7.1-0.1-5 0-4.7 1.6-4.7 3v0.1c1-0.3 2.1-0.5 3.1-0.5 6.7 0 12.1 5.9 12.1 13.2 0 1.6-0.3 2.9-0.7 4.2 0 0.1 0.1 0.3 0.3 0.5h-7.6c0.2-0.2 0.3-0.3 0.4-0.5 0.6-1 1-2.2 1-3.6 0-3.3-2.3-5.9-5.2-5.9-2.9 0-5.3 2.6-5.3 5.9 0 3.3 2.4 6.1 5.3 6 0.8 0 1.5-0.2 2.1-0.4 0.6-0.2 1.1-0.6 1.1-0.6v8.4c0 0-0.5-0.3-1.1-0.6-0.6-0.2-2-0.1-2.4-0.1-6.7 0-12.1-5.9-12.1-13.3 0-3.4 1.3-6.7 3.4-9.1-1.7-1.5-2.7-3.3-2.7-5.6 0-4.3 3.9-7.7 8.7-7.7h4.9v-1.5h-15.7v32.9c0 0 0 0.5 0.2 1 0.2 0.6 0.6 1.1 0.6 1.1h-5.3v4.5c-0.5-0.2-0.9-0.3-1.3-0.3-1.7 0-3.1 1.5-3.1 3.4 0 1.9 1.4 3.4 3.1 3.4 1.3 0 1.9-0.6 2.4-0.9 0.6-0.3 1.2-0.9 1.2-0.9v7.5c0 0-0.5-0.1-1.1-0.1-0.5 0-1 0-1 0-0.5 0.1-1 0.2-1.5 0.2-4.7 0-8.5-4.1-8.5-9.2 0-5 3.7-9.1 8.3-9.2 0.1-0.3 0.1-0.8 0.1-0.8v-32.6h-6.6v16.8c0 7-4.8 12.6-10.7 12.6-5.8 0-10.6-5.6-10.6-12.6 0-6.9 4.8-12.5 10.6-12.5 1.7 0 3.3 0.5 4.6 1.3v-5.6h-17.7c0 0.1 0 17.1 0 17.3v15.6c0 0 0 0.5 0.2 1 0.1 0.6 0.5 1.1 0.5 1.1h-7.5c0 0 0.5-0.5 0.7-1.1 0.1-0.6 0.1-1.3 0.1-1.3v-4.4c-1.5 0.9-3.2 1.4-5 1.4-4.9 0-9.1-3.8-10.5-9.1h-4.3v-7.6h4.5c1.4-5.1 5.5-8.7 10.3-8.7 1.2 0 2.4 0.1 3.5 0.6v8.1c-0.8-0.9-1.8-1.4-3-1.4-2.4 0-4.4 2.4-4.4 5.3 0 3.1 2 5.4 4.4 5.4 2.5 0 4.5-2.3 4.5-5.4v-16.8h-21.6c1.1 1.9 1.7 4 1.7 6.2 0 4.7-2.5 8.7-6.1 10.9 5.5 6.7 5.2 15.8 5.2 15.8 0 0 0 0.5 0.2 1 0.1 0.6 0.5 1.1 0.5 1.1h-8.3c0 0 0.4-0.5 0.5-1.1 0.2-0.6 0.2-1.3 0.2-1.3 0 0 0.3-10.9-6.6-13.7-0.9-0.1-1.8-0.3-2.6-0.6h-0.3v-7.2c0.4 0.1 1 0.1 1.5 0.4 1.1 0.2 2.1 0.5 3 1 3.3-0.1 6.2-2.9 6.2-6.3 0-3.2-2.7-6-5.9-6.2h-6.3zm134.6 9.1c0 4.9-3.9 8.9-8.7 8.9-0.5 0-0.9 0-1.4-0.1-0.6 1-1 2.2-1 3.4 0 3.5 2.9 6.3 6.5 6.3 3.4 0 6.1-2.4 6.5-5.5v-16.3h-2.6c0.5 1 0.7 2.1 0.7 3.3zm-72.2 13.4c0-2.8-1.9-5.1-4.4-5.1-2.3 0-4.3 2.3-4.3 5.1 0 2.9 2 5.2 4.3 5.2 2.5 0 4.4-2.3 4.4-5.2z"/></svg>